<?xml version="1.0" encoding="utf-8"?>
<!-- Generator: Adobe Illustrator 24.1.2, SVG Export Plug-In . SVG Version: 6.00 Build 0)  -->
<svg version="1.1" id="Lager_1" xmlns="http://www.w3.org/2000/svg" xmlns:xlink="http://www.w3.org/1999/xlink" x="0px" y="0px"
	 viewBox="0 0 283.47 300.55" style="enable-background:new 0 0 283.47 300.55;" xml:space="preserve">
<style type="text/css">
	.st0{fill:#FFFFFF;}
</style>
<g>
	<polygon class="st0" points="17.68,300.14 17.68,288.49 4.24,288.49 4.24,300.14 0,300.14 0,273.55 4.24,273.55 4.24,284.77 
		17.68,284.77 17.68,273.55 21.92,273.55 21.92,300.14 	"/>
	<polygon class="st0" points="31.85,300.14 31.85,273.55 46.05,273.55 44.76,277.18 36.09,277.18 36.09,284.73 44.72,284.73 
		44.72,288.37 36.09,288.37 36.09,296.51 46.1,296.51 46.1,300.14 	"/>
	<polygon class="st0" points="54.94,300.14 54.94,273.55 59.13,273.55 59.13,296.51 68.87,296.51 68.87,300.14 	"/>
	<g>
		<path class="st0" d="M82.71,300.55c-3.67,0-6.18-1.21-7.87-2.29l1.78-3.19c1.33,0.93,3.43,1.98,5.93,1.98
			c2.18,0,4.72-0.98,4.72-3.4c0-4.08-6.42-4.88-9.65-8.48c-1.09-1.21-1.81-2.71-1.81-4.75c0-3.88,2.98-7.12,8.35-7.12
			c2.83,0,4.92,0.73,6.29,1.46l-0.04,3.95c-1.82-1.08-3.87-1.85-6.05-1.85c-2.3,0-4.2,0.96-4.2,3.06c0,5.25,11.62,5.1,11.62,13.24
			C91.79,297.64,87.84,300.55,82.71,300.55"/>
	</g>
	<rect x="100.23" y="273.55" class="st0" width="4.24" height="26.6"/>
	<g>
		<path class="st0" d="M133.78,300.14l-12.52-16.34c-1.29-1.69-2.01-2.75-2.66-3.84h-0.08c0.08,0.89,0.08,2.19,0.08,3.48v16.71
			h-4.19v-26.6h4.28l12.02,15.74c1.46,1.9,2.18,2.91,2.79,4h0.08c-0.04-1.1-0.08-2.43-0.08-3.73v-16.02h4.24v26.6H133.78z"/>
		<path class="st0" d="M158.81,300.55c-8.11,0-13.31-5.7-13.31-13.36c0-8.04,5.76-13.9,14.44-13.9c3.39,0,5.97,0.77,7.71,1.5
			l-0.04,4.07c-1.94-1-4.48-1.98-7.39-1.98c-6.91,0-10.17,4.37-10.17,9.89c0,5.97,3.74,10.17,9.84,10.17c1.98,0,3.51-0.35,4.49-0.89
			v-9.16h4.23v11.3C166.47,299.34,162.97,300.55,158.81,300.55"/>
		<path class="st0" d="M185.98,300.14h-7.83v-26.59h8.07c5.09,0,7.43,3.38,7.43,6.54c0,2.46-1.17,4.64-3.39,5.65v0.03
			c2.78,0.61,5.08,3.15,5.08,6.46C195.33,295.95,192.8,300.14,185.98,300.14 M182.38,277.22v7.55h3.02c1.99,0,3.92-1.45,3.92-3.87
			c0-2.23-1.33-3.68-4.24-3.68H182.38z M185.98,288.4h-3.59v8.11h3.39c3.44,0,5.17-1.69,5.17-4.24
			C190.95,290.02,189.08,288.4,185.98,288.4"/>
		<path class="st0" d="M205.4,277.18c2.38-2.42,5.72-3.88,9.64-3.88c4.19,0,7.71,1.54,10.09,4.16c2.18,2.42,3.34,5.69,3.34,9.45
			c0,4-1.37,7.5-3.83,9.93c-2.43,2.39-5.69,3.71-9.61,3.71c-3.75,0-6.9-1.18-9.25-3.27c-2.66-2.46-4.19-6.05-4.19-10.22
			C201.61,283.11,202.97,279.65,205.4,277.18 M215.04,276.98c-5.37,0-8.96,3.79-8.96,10.02c0,6.16,3.59,9.96,8.96,9.96
			c5.33,0,8.92-3.79,8.92-9.96C223.97,281.01,220.61,276.98,215.04,276.98"/>
		<path class="st0" d="M250.2,300.15c-4.16-6.85-6.21-10.49-7.26-10.78h-2.46v10.78h-4.24v-26.6h6.62c6.66,0,9.21,3.35,9.21,7.43
			c0,3.63-2.39,5.97-5.01,7.02v0.04c1.09,0.56,3.91,5.29,8.07,12.11H250.2z M242.9,277.22h-2.42v8.84h2.51
			c2.74,0,4.76-2.1,4.76-4.64C247.74,279.13,246.33,277.22,242.9,277.22"/>
		<path class="st0" d="M273.66,300.55c-8.12,0-13.32-5.7-13.32-13.36c0-8.04,5.77-13.9,14.45-13.9c3.39,0,5.98,0.77,7.71,1.5
			l-0.03,4.07c-1.94-1-4.48-1.98-7.39-1.98c-6.91,0-10.18,4.37-10.18,9.89c0,5.97,3.75,10.17,9.85,10.17c1.97,0,3.52-0.35,4.47-0.89
			v-9.16h4.24v11.3C281.33,299.34,277.81,300.55,273.66,300.55"/>
		<path class="st0" d="M141.73,81.36L141.73,81.36c0.86,0,1.56,0.7,1.56,1.56c0,0.86-0.7,1.56-1.56,1.56c-0.86,0-1.56-0.7-1.56-1.56
			C140.17,82.07,140.87,81.36,141.73,81.36"/>
		<path class="st0" d="M144.86,79.31c0,0,0.12-0.76,0.12-1.79c0-1.02-0.12-1.79-0.12-1.79s-0.95,0.55-1.94,0.5
			c-0.12-1.44,0.87-2.98,0.87-2.98s-1.32,0.42-2.06,0.42c-0.74,0-2.06-0.42-2.06-0.42s0.99,1.54,0.87,2.98
			c-0.99,0.06-1.94-0.5-1.94-0.5s-0.12,0.76-0.12,1.79c0,1.02,0.12,1.79,0.12,1.79s0.95-0.55,1.94-0.5c0.09,1.06-0.47,2.11-0.78,2.6
			l0.17,0.13c0.42-0.54,1.07-0.89,1.8-0.89c0.73,0,1.38,0.35,1.8,0.89l0.17-0.13c-0.31-0.49-0.87-1.54-0.78-2.6
			C143.91,78.76,144.86,79.31,144.86,79.31"/>
	</g>
	<polygon class="st0" points="141.73,85.08 126.42,96.99 126.42,101.92 130.73,101.92 130.73,96.99 139.58,96.99 139.58,101.92 
		143.89,101.92 143.89,96.99 152.73,96.99 152.73,101.92 157.05,101.92 157.05,96.99 	"/>
	<polygon class="st0" points="159.31,99.26 159.31,104.19 150.47,104.19 150.47,99.26 146.16,99.26 146.16,104.19 137.31,104.19 
		137.31,99.26 133,99.26 133,104.19 124.15,104.19 124.15,99.26 119.84,99.26 119.84,104.19 119.84,108.42 163.62,108.42 
		163.62,104.19 163.62,99.26 	"/>
	<g>
		<path class="st0" d="M92.14,105.64c0-1.01,0.82-1.83,1.83-1.83c1.01,0,1.83,0.82,1.83,1.83c0,1.01-0.82,1.83-1.83,1.83
			C92.96,107.47,92.14,106.65,92.14,105.64"/>
	</g>
	<polygon class="st0" points="94.88,115.11 94.88,108.57 93.05,108.57 93.05,115.11 81,130.52 121.32,130.52 121.32,115.11 	"/>
	<g>
		<path class="st0" d="M115.46,142.12h-4.57v-5.02c0-1.01,1.02-1.82,2.29-1.82c1.26,0,2.29,0.82,2.29,1.82V142.12z M107.09,142.12
			h-4.57v-5.02c0-1.01,1.02-1.82,2.29-1.82c1.26,0,2.29,0.82,2.29,1.82V142.12z M98.72,142.12h-4.57v-5.02
			c0-1.01,1.02-1.82,2.29-1.82c1.26,0,2.29,0.82,2.29,1.82V142.12z M88.29,145.87h33.03v-13.08H88.29V145.87z"/>
		<path class="st0" d="M191.33,105.64c0-1.01-0.82-1.83-1.83-1.83c-1.01,0-1.83,0.82-1.83,1.83c0,1.01,0.82,1.83,1.83,1.83
			C190.51,107.47,191.33,106.65,191.33,105.64"/>
	</g>
	<polygon class="st0" points="188.58,115.11 188.58,108.57 190.41,108.57 190.41,115.11 202.47,130.52 162.15,130.52 162.15,115.11 
			"/>
	<g>
		<path class="st0" d="M168,137.1c0-1.01,1.02-1.82,2.29-1.82c1.26,0,2.29,0.82,2.29,1.82v5.02H168V137.1z M176.38,137.1
			c0-1.01,1.02-1.82,2.29-1.82c1.26,0,2.29,0.82,2.29,1.82v5.02h-4.57V137.1z M184.75,137.1c0-1.01,1.02-1.82,2.29-1.82
			c1.26,0,2.29,0.82,2.29,1.82v5.02h-4.57V137.1z M162.15,145.87h33.03v-13.08h-33.03V145.87z"/>
		<path class="st0" d="M101.81,166.21l18.74-18.08H86.63c0,0-11.45,3.96-11.45,12.68c0,2.45,1.23,4.38,2.05,5.39H101.81z"/>
		<path class="st0" d="M181.66,166.21l-18.74-18.08h33.91c0,0,11.45,3.96,11.45,12.68c0,2.45-1.23,4.38-2.05,5.39H181.66z"/>
		<path class="st0" d="M171.08,166.23l-22.32-29.45l30.19,29.94c-0.7,0.28-1.88,0.62-3.42,0.62
			C173.02,167.35,171.56,166.54,171.08,166.23 M160.21,166.21l-14.47-30.73l22.8,31.1c-0.8,0.36-2.08,0.76-3.76,0.76
			C162.6,167.35,160.9,166.58,160.21,166.21 M149,166.14l-5.5-31.63l14.38,32c-0.69,0.36-1.95,0.83-3.84,0.83
			C152.22,167.35,149.98,166.54,149,166.14 M141.73,167.35c-2.81,0-4.34-0.54-5.04-0.9l5.04-32.75l5.04,32.75
			C146.07,166.8,144.54,167.34,141.73,167.35 M125.58,166.52l14.38-32l-5.5,31.63c-0.98,0.39-3.22,1.2-5.04,1.2
			C127.53,167.35,126.27,166.87,125.58,166.52 M114.93,166.59l22.8-31.1l-14.47,30.73c-0.68,0.37-2.37,1.13-4.56,1.13
			C117,167.35,115.72,166.94,114.93,166.59 M104.51,166.72l30.19-29.94l-22.31,29.45c-0.49,0.32-1.95,1.12-4.46,1.12
			C106.38,167.35,105.2,167,104.51,166.72"/>
		<path class="st0" d="M103.41,180.69h-4.57v-5.02c0-1,1.02-1.82,2.29-1.82c1.26,0,2.29,0.81,2.29,1.82V180.69z M82.09,175.67
			c0-1,1.02-1.82,2.29-1.82c1.26,0,2.29,0.81,2.29,1.82v5.02h-4.57V175.67z M90.47,175.67c0-1,1.02-1.82,2.29-1.82
			c1.26,0,2.29,0.81,2.29,1.82v5.02h-4.57V175.67z M102.89,168.48H78.77v22.55h3.12v8.88h14.43v-8.88h10.42v-21.47
			C104.82,169.37,103.47,168.78,102.89,168.48"/>
		<path class="st0" d="M180.06,175.67c0-1,1.02-1.82,2.29-1.82c1.26,0,2.29,0.81,2.29,1.82v5.02h-4.57V175.67z M201.37,180.69h-4.57
			v-5.02c0-1,1.02-1.82,2.29-1.82c1.26,0,2.29,0.81,2.29,1.82V180.69z M193,180.69h-4.57v-5.02c0-1,1.02-1.82,2.29-1.82
			c1.26,0,2.29,0.81,2.29,1.82V180.69z M176.73,169.55v21.47h10.42v8.88h14.43v-8.88h3.12v-22.55h-24.12
			C179.99,168.78,178.65,169.37,176.73,169.55"/>
		<path class="st0" d="M168.38,185.7h-6.06v-8.63c0-1.33,1.36-2.41,3.03-2.41c1.67,0,3.03,1.08,3.03,2.41V185.7z M157.8,185.7h-7.52
			v-9.24c0-1.65,1.68-2.99,3.76-2.99c2.08,0,3.76,1.34,3.76,2.99V185.7z M145.49,185.7h-7.52v-9.24c0-1.65,1.68-2.99,3.76-2.99
			c2.08,0,3.76,1.34,3.76,2.99V185.7z M133.18,185.7h-7.52v-9.24c0-1.65,1.68-2.99,3.76-2.99c2.08,0,3.76,1.34,3.76,2.99V185.7z
			 M121.14,185.7h-6.06v-8.63c0-1.33,1.36-2.41,3.03-2.41c1.67,0,3.03,1.08,3.03,2.41V185.7z M170.15,168.31
			c-0.94,0.52-2.79,1.3-5.38,1.3c-2.5,0-4.47-0.81-5.46-1.31c-0.89,0.53-2.64,1.31-5.27,1.31c-2.2,0-4.72-0.9-5.86-1.36
			c-0.92,0.55-2.86,1.35-6.42,1.36h-0.04c-3.56-0.01-5.51-0.8-6.43-1.36c-1.14,0.46-3.67,1.36-5.86,1.36
			c-2.63,0-4.38-0.78-5.27-1.31c-0.99,0.5-2.96,1.31-5.46,1.31c-2.59,0-4.43-0.78-5.38-1.3c-0.79,0.45-2.23,1.08-4.31,1.25v21.46
			h7.97v8.88h14.43v-8.88h20.66v8.88h14.43v-8.88h7.97v-21.46C172.39,169.4,170.94,168.77,170.15,168.31"/>
		<path class="st0" d="M135.65,119.73h-4.57v-5.02c0-1,1.02-1.82,2.29-1.82c1.26,0,2.29,0.81,2.29,1.82V119.73z M139.45,114.71
			c0-1,1.03-1.82,2.29-1.82c1.26,0,2.29,0.81,2.29,1.82v5.02h-4.57V114.71z M147.82,114.71c0-1,1.02-1.82,2.29-1.82
			c1.26,0,2.29,0.81,2.29,1.82v5.02h-4.57V114.71z M137.98,125.87l3.75-3.75l3.75,3.75l-2.77,2.77l17.17,16.56v-34.52h-36.29v34.52
			l17.17-16.56L137.98,125.87z"/>
		<path class="st0" d="M220.06,194.14H204.7v8.88h-20.66v-8.88h-14.43v8.88h-20.66v-8.88h-14.43v8.88h-20.66v-8.88H99.43v8.88H78.77
			v-8.88H63.4V66.96h156.66V194.14z M219.36,0v2.44h-3.78V0h-5.59v2.44h-3.78V0h-5.59v6.57h2.52v10.02H199v6.74h-7.35v-6.74h-4.15
			V6.57h2.52V0h-5.59v2.44h-3.78V0h-5.59v2.44h-3.78V0h-5.59v6.57h2.52v10.02h-4.14v6.74h-8.56v-6.74h-4.14V6.57h2.52V0h-5.59v2.44
			h-3.78V0h-5.59v2.44h-3.78V0h-5.59v6.57h2.52v10.02h-4.15v6.74h-7.95v-6.74h-4.15V6.57h2.52V0h-5.59v2.44H109V0h-5.59v2.44h-3.78
			V0h-5.59v6.57h2.52v10.02h-4.14v6.74h-7.95v-6.74h-4.15V6.57h2.52V0h-5.59v2.44h-3.78V0h-5.59v2.44h-3.78V0h-5.59v6.57h2.52v16.76
			l9.72,10.33v16.19h-4.83v15.63h-4v150.58c0,9.45,4.74,14.99,14.92,17.43c15.71,3.76,37.75,9.04,53.46,12.82
			c5.49,1.32,8.9,4.35,10.73,9.52l0.69,1.96l0.7-1.96c1.83-5.17,5.24-8.19,10.73-9.52c15.7-3.78,37.74-9.06,53.46-12.82
			c10.18-2.44,14.92-7.97,14.92-17.43V65.48h-4V49.85h-4.83V33.66l9.72-10.33V6.57h2.52V0H219.36z"/>
	</g>
</g>
</svg>
