<?xml version="1.0" encoding="utf-8"?>
<!-- Generator: Adobe Illustrator 24.1.2, SVG Export Plug-In . SVG Version: 6.00 Build 0)  -->
<svg version="1.1" id="Layer_1" xmlns="http://www.w3.org/2000/svg" xmlns:xlink="http://www.w3.org/1999/xlink" x="0px" y="0px"
	 viewBox="0 0 1672.99 432.54" style="enable-background:new 0 0 1672.99 432.54;" xml:space="preserve">
<style type="text/css">
	.st0{fill:#FFFFFF;}
</style>
<g>
	<g>
		<g>
			<path class="st0" d="M381.45,307.2h-5.92v-33.34h-39.74v33.34h-5.87v-69.53h5.87v31.23h39.74v-31.23h5.92V307.2z"/>
			<path class="st0" d="M417.32,308.16c-4.4,0-8.37-1.08-11.92-3.25c-3.55-2.16-6.31-5.18-8.29-9.05c-1.97-3.87-2.96-8.2-2.96-13.01
				v-2.05c0-4.97,0.96-9.44,2.89-13.42c1.93-3.98,4.61-7.11,8.05-9.38c3.44-2.28,7.17-3.41,11.18-3.41c6.27,0,11.25,2.14,14.92,6.42
				c3.68,4.28,5.52,10.13,5.52,17.55v3.2h-36.87v1.1c0,5.86,1.68,10.74,5.04,14.64s7.59,5.85,12.68,5.85c3.06,0,5.76-0.56,8.1-1.67
				c2.34-1.11,4.47-2.9,6.37-5.35l3.59,2.72C431.4,305.12,425.3,308.16,417.32,308.16z M416.27,259.45c-4.3,0-7.92,1.57-10.87,4.73
				c-2.94,3.15-4.74,7.39-5.37,12.71h31v-0.62c-0.16-4.97-1.58-9.01-4.25-12.13C424.1,261.01,420.59,259.45,416.27,259.45z"/>
			<path class="st0" d="M453.54,307.2h-5.73v-73.35h5.73V307.2z"/>
			<path class="st0" d="M498.43,294.07c0-2.83-1.14-5.11-3.42-6.83s-5.71-3.06-10.29-4.03c-4.59-0.97-8.14-2.09-10.68-3.34
				c-2.53-1.26-4.41-2.79-5.63-4.61c-1.23-1.81-1.84-4.01-1.84-6.59c0-4.07,1.7-7.44,5.11-10.1c3.41-2.66,7.77-3.99,13.08-3.99
				c5.76,0,10.38,1.43,13.87,4.27c3.49,2.85,5.23,6.57,5.23,11.15h-5.73c0-3.02-1.26-5.54-3.8-7.55c-2.53-2.01-5.72-3.01-9.57-3.01
				c-3.76,0-6.78,0.84-9.05,2.51c-2.28,1.67-3.41,3.84-3.41,6.52c0,2.58,0.95,4.58,2.84,5.99c1.9,1.42,5.35,2.72,10.37,3.89
				c5.01,1.18,8.77,2.44,11.27,3.77c2.5,1.34,4.36,2.95,5.56,4.82c1.21,1.88,1.82,4.15,1.82,6.83c0,4.36-1.76,7.85-5.28,10.46
				s-8.11,3.92-13.78,3.92c-6.02,0-10.9-1.46-14.64-4.37c-3.74-2.91-5.61-6.6-5.61-11.06h5.73c0.22,3.34,1.63,5.94,4.22,7.81
				c2.6,1.86,6.03,2.8,10.29,2.8c3.98,0,7.19-0.88,9.65-2.63C497.2,298.96,498.43,296.74,498.43,294.07z"/>
			<path class="st0" d="M515.2,240.61c0-1.08,0.35-1.99,1.05-2.73c0.7-0.74,1.66-1.11,2.87-1.11s2.17,0.37,2.89,1.11
				c0.71,0.74,1.07,1.65,1.07,2.73c0,1.07-0.36,1.98-1.07,2.7c-0.72,0.73-1.68,1.09-2.89,1.09s-2.17-0.36-2.87-1.09
				S515.2,241.68,515.2,240.61z M521.93,307.2h-5.73v-51.67h5.73V307.2z"/>
			<path class="st0" d="M541.73,255.53l0.19,8.84c1.94-3.18,4.36-5.61,7.26-7.28s6.1-2.51,9.6-2.51c5.54,0,9.66,1.56,12.37,4.68
				s4.07,7.8,4.11,14.04v33.91h-5.68v-33.96c-0.03-4.61-1.01-8.05-2.94-10.31s-5.01-3.39-9.24-3.39c-3.53,0-6.67,1.11-9.38,3.32
				c-2.72,2.22-4.74,5.2-6.05,8.96v35.39h-5.68v-51.67h5.44V255.53z"/>
			<path class="st0" d="M586.9,280.89c0-8.09,1.79-14.5,5.37-19.22c3.59-4.73,8.45-7.09,14.59-7.09c7.04,0,12.39,2.8,16.05,8.4
				l0.29-7.45h5.34v50.62c0,6.65-1.86,11.92-5.59,15.81c-3.73,3.89-8.77,5.83-15.14,5.83c-3.6,0-7.03-0.8-10.29-2.41
				c-3.26-1.61-5.84-3.75-7.72-6.42l3.2-3.44c4.05,4.97,8.85,7.45,14.42,7.45c4.78,0,8.5-1.41,11.18-4.23
				c2.67-2.82,4.06-6.73,4.15-11.72v-6.5c-3.66,5.09-8.99,7.64-16,7.64c-5.99,0-10.79-2.39-14.42-7.16s-5.44-11.22-5.44-19.34
				L586.9,280.89L586.9,280.89z M592.68,281.89c0,6.59,1.32,11.79,3.97,15.59c2.64,3.8,6.37,5.71,11.18,5.71
				c7.03,0,12.02-3.15,14.95-9.46v-24.02c-1.34-3.31-3.26-5.83-5.78-7.57c-2.52-1.74-5.54-2.6-9.07-2.6c-4.8,0-8.55,1.89-11.22,5.66
				C594.02,268.97,592.68,274.54,592.68,281.89z"/>
			<path class="st0" d="M684.14,281.89c0,8.05-1.78,14.45-5.35,19.17c-3.56,4.73-8.36,7.09-14.37,7.09
				c-7.19,0-12.64-2.67-16.34-8.02l-0.24,7.07h-5.35v-73.35h5.68v29.18c3.63-5.63,9.01-8.45,16.14-8.45c6.11,0,10.94,2.33,14.49,7
				c3.55,4.66,5.33,11.15,5.33,19.46L684.14,281.89L684.14,281.89z M678.42,280.89c0-6.81-1.32-12.07-3.97-15.78
				c-2.64-3.71-6.37-5.57-11.18-5.57c-3.66,0-6.76,0.9-9.31,2.7c-2.55,1.8-4.48,4.43-5.78,7.9v23.3c2.87,6.5,7.93,9.74,15.19,9.74
				c4.71,0,8.4-1.86,11.06-5.59C677.08,293.88,678.42,288.31,678.42,280.89z"/>
			<path class="st0" d="M693.26,280.6c0-4.97,0.96-9.44,2.89-13.42s4.65-7.08,8.17-9.29c3.52-2.21,7.5-3.32,11.96-3.32
				c6.87,0,12.45,2.41,16.71,7.23c4.27,4.82,6.4,11.21,6.4,19.17v1.2c0,5-0.97,9.5-2.89,13.49c-1.93,4-4.64,7.08-8.14,9.24
				c-3.5,2.17-7.5,3.25-11.99,3.25c-6.84,0-12.41-2.41-16.69-7.23c-4.29-4.82-6.42-11.21-6.42-19.17L693.26,280.6L693.26,280.6z
				 M698.99,282.18c0,6.17,1.6,11.25,4.8,15.21c3.2,3.97,7.4,5.95,12.58,5.95c5.16,0,9.34-1.98,12.54-5.95
				c3.2-3.96,4.8-9.19,4.8-15.69v-1.1c0-3.95-0.74-7.56-2.2-10.84c-1.47-3.28-3.52-5.82-6.16-7.62c-2.64-1.8-5.67-2.7-9.07-2.7
				c-5.1,0-9.25,2-12.46,5.99c-3.22,4-4.83,9.23-4.83,15.69L698.99,282.18L698.99,282.18z"/>
			<path class="st0" d="M774.56,260.4c-1.21-0.22-2.5-0.33-3.87-0.33c-3.57,0-6.59,0.99-9.05,2.99c-2.47,1.99-4.23,4.88-5.28,8.67
				v35.48h-5.68v-51.67h5.59l0.09,8.21c3.03-6.11,7.88-9.17,14.57-9.17c1.59,0,2.85,0.21,3.78,0.62L774.56,260.4z"/>
			<path class="st0" d="M779.59,280.89c0-8.09,1.79-14.5,5.37-19.22c3.59-4.73,8.45-7.09,14.59-7.09c7.04,0,12.39,2.8,16.05,8.4
				l0.29-7.45h5.34v50.62c0,6.65-1.86,11.92-5.59,15.81c-3.73,3.89-8.77,5.83-15.14,5.83c-3.6,0-7.03-0.8-10.29-2.41
				c-3.26-1.61-5.84-3.75-7.72-6.42l3.2-3.44c4.05,4.97,8.85,7.45,14.42,7.45c4.78,0,8.5-1.41,11.18-4.23
				c2.67-2.82,4.06-6.73,4.15-11.72v-6.5c-3.66,5.09-8.99,7.64-16,7.64c-5.99,0-10.79-2.39-14.42-7.16
				c-3.63-4.78-5.44-11.22-5.44-19.34L779.59,280.89L779.59,280.89z M785.37,281.89c0,6.59,1.32,11.79,3.97,15.59
				c2.64,3.8,6.37,5.71,11.18,5.71c7.03,0,12.02-3.15,14.95-9.46v-24.02c-1.34-3.31-3.26-5.83-5.78-7.57
				c-2.52-1.74-5.54-2.6-9.07-2.6c-4.8,0-8.55,1.89-11.22,5.66C786.71,268.97,785.37,274.54,785.37,281.89z"/>
			<path class="st0" d="M369.27,387.91c0-3.85-1.36-6.9-4.06-9.15c-2.71-2.24-7.66-4.38-14.85-6.4s-12.45-4.22-15.76-6.61
				c-4.71-3.37-7.07-7.8-7.07-13.27c0-5.32,2.18-9.64,6.56-12.97s9.98-4.99,16.79-4.99c4.62,0,8.75,0.89,12.4,2.68
				c3.64,1.78,6.47,4.27,8.48,7.45s3.01,6.73,3.01,10.65h-5.92c0-4.76-1.62-8.58-4.87-11.47s-7.61-4.34-13.09-4.34
				c-5.32,0-9.55,1.19-12.7,3.56c-3.15,2.38-4.73,5.48-4.73,9.3c0,3.54,1.42,6.43,4.25,8.66s7.37,4.2,13.61,5.91
				s10.97,3.48,14.18,5.31c3.22,1.83,5.64,4.02,7.26,6.57s2.44,5.56,2.44,9.02c0,5.48-2.19,9.87-6.57,13.18s-10.15,4.97-17.31,4.97
				c-4.9,0-9.4-0.87-13.49-2.63c-4.09-1.75-7.2-4.2-9.32-7.35s-3.18-6.77-3.18-10.84h5.88c0,4.9,1.83,8.77,5.49,11.61
				c3.66,2.83,8.53,4.25,14.61,4.25c5.41,0,9.76-1.2,13.04-3.58C367.63,395.03,369.27,391.86,369.27,387.91z"/>
			<path class="st0" d="M400.25,393.12l0.86,4.44l1.15-4.68l12.42-39.54h4.87l12.27,39.21l1.34,5.44l1.1-5.02l10.6-39.64h5.92
				L435.74,405h-4.87l-13.27-40.98l-0.62-2.82l-0.62,2.87L403.32,405h-4.87l-14.99-51.67h5.87L400.25,393.12z"/>
			<path class="st0" d="M479.31,405.96c-4.4,0-8.37-1.08-11.92-3.25c-3.55-2.16-6.31-5.18-8.29-9.05c-1.97-3.87-2.96-8.2-2.96-13.01
				v-2.05c0-4.97,0.96-9.44,2.89-13.42s4.61-7.11,8.05-9.38c3.44-2.28,7.17-3.41,11.18-3.41c6.27,0,11.25,2.14,14.92,6.42
				c3.68,4.28,5.52,10.13,5.52,17.55v3.2h-36.87v1.1c0,5.86,1.68,10.74,5.04,14.64s7.59,5.85,12.68,5.85c3.06,0,5.76-0.56,8.1-1.67
				c2.34-1.11,4.47-2.9,6.37-5.35l3.59,2.72C493.39,402.92,487.3,405.96,479.31,405.96z M478.26,357.25c-4.3,0-7.92,1.57-10.87,4.73
				c-2.94,3.15-4.74,7.39-5.37,12.71h31v-0.62c-0.16-4.97-1.58-9.01-4.25-12.13C486.09,358.81,482.59,357.25,478.26,357.25z"/>
			<path class="st0" d="M507.31,378.69c0-8.02,1.79-14.42,5.37-19.18c3.59-4.76,8.45-7.14,14.59-7.14c6.98,0,12.29,2.75,15.95,8.26
				v-28.99h5.68v73.35h-5.35l-0.24-6.88c-3.66,5.22-9.05,7.83-16.14,7.83c-5.95,0-10.76-2.39-14.4-7.19
				c-3.64-4.79-5.46-11.26-5.46-19.41L507.31,378.69L507.31,378.69z M513.09,379.7c0,6.59,1.32,11.79,3.97,15.59
				c2.64,3.8,6.37,5.71,11.18,5.71c7.03,0,12.03-3.11,14.99-9.31v-24.27c-2.96-6.72-7.92-10.08-14.9-10.08
				c-4.8,0-8.55,1.89-11.22,5.66C514.43,366.78,513.09,372.34,513.09,379.7z"/>
			<path class="st0" d="M583.32,405.96c-4.4,0-8.37-1.08-11.92-3.25c-3.55-2.16-6.31-5.18-8.29-9.05c-1.97-3.87-2.96-8.2-2.96-13.01
				v-2.05c0-4.97,0.96-9.44,2.89-13.42s4.61-7.11,8.05-9.38c3.44-2.28,7.17-3.41,11.18-3.41c6.27,0,11.25,2.14,14.92,6.42
				c3.68,4.28,5.52,10.13,5.52,17.55v3.2h-36.87v1.1c0,5.86,1.68,10.74,5.04,14.64s7.59,5.85,12.68,5.85c3.06,0,5.76-0.56,8.1-1.67
				c2.34-1.11,4.47-2.9,6.37-5.35l3.59,2.72C597.41,402.92,591.31,405.96,583.32,405.96z M582.27,357.25
				c-4.3,0-7.92,1.57-10.87,4.73c-2.94,3.15-4.74,7.39-5.37,12.71h31v-0.62c-0.16-4.97-1.58-9.01-4.25-12.13
				C590.1,358.81,586.6,357.25,582.27,357.25z"/>
			<path class="st0" d="M618.84,353.33l0.19,8.84c1.94-3.18,4.36-5.61,7.26-7.28s6.1-2.51,9.6-2.51c5.54,0,9.66,1.56,12.37,4.68
				s4.07,7.8,4.11,14.04v33.91h-5.68v-33.96c-0.03-4.61-1.01-8.05-2.94-10.32c-1.93-2.26-5.01-3.39-9.24-3.39
				c-3.53,0-6.67,1.11-9.38,3.32c-2.72,2.22-4.74,5.2-6.05,8.96v35.39h-5.69v-51.67L618.84,353.33L618.84,353.33z"/>
		</g>
	</g>
	<g>
		<path class="st0" d="M435.82,169.64h-114.7v-22.76l54.13-57.69c7.43-8.12,12.93-15.21,16.49-21.26c3.56-6.05,5.34-11.8,5.34-17.24
			c0-7.43-1.88-13.27-5.63-17.53s-9.12-6.38-16.09-6.38c-7.51,0-13.43,2.59-17.76,7.76s-6.49,11.97-6.49,20.4h-33.32
			c0-10.19,2.43-19.5,7.3-27.93s11.74-15.04,20.63-19.83S364.68,0,375.95,0c17.24,0,30.63,4.14,40.17,12.41s14.31,19.96,14.31,35.05
			c0,8.27-2.14,16.71-6.44,25.28c-4.29,8.58-11.65,18.58-22.07,30l-38.04,40.11h71.95L435.82,169.64L435.82,169.64z"/>
		<path class="st0" d="M570.87,169.64h-114.7v-22.76l54.13-57.69c7.43-8.12,12.93-15.21,16.49-21.26c3.56-6.05,5.34-11.8,5.34-17.24
			c0-7.43-1.88-13.27-5.63-17.53c-3.75-4.25-9.12-6.38-16.09-6.38c-7.51,0-13.43,2.59-17.76,7.76s-6.49,11.97-6.49,20.4h-33.33
			c0-10.19,2.43-19.5,7.3-27.93s11.74-15.04,20.63-19.83C489.65,2.39,499.72,0,510.99,0c17.24,0,30.63,4.14,40.17,12.41
			s14.31,19.96,14.31,35.05c0,8.27-2.14,16.71-6.44,25.28c-4.29,8.58-11.65,18.58-22.07,30l-38.04,40.11h71.95L570.87,169.64
			L570.87,169.64z"/>
		<polygon class="st0" points="215.27,2.3 215.27,141.81 34.48,141.81 34.48,2.3 0,2.3 0,169.63 249.74,169.63 249.74,2.3 		"/>
		<polygon class="st0" points="0,405 34.48,405 34.48,265.49 215.27,265.49 215.27,405 249.74,405 249.74,237.67 0,237.67 		"/>
	</g>
</g>
<g>
	<path class="st0" d="M1107.75,242.63h-23.66v64.11h-5.83v-64.11h-23.61v-4.93h53.11v4.93L1107.75,242.63L1107.75,242.63z"/>
	<path class="st0" d="M1123.8,264.11c1.87-3.07,4.25-5.44,7.16-7.12c2.91-1.67,6.09-2.51,9.53-2.51c5.5,0,9.6,1.55,12.28,4.65
		c2.69,3.1,4.05,7.74,4.08,13.94v33.67h-5.64v-33.71c-0.03-4.59-1-8-2.92-10.24c-1.91-2.25-4.97-3.37-9.17-3.37
		c-3.51,0-6.61,1.09-9.32,3.29c-2.7,2.2-4.7,5.16-6,8.89v35.14h-5.64v-72.83h5.64V264.11z"/>
	<path class="st0" d="M1191.32,307.68c-4.36,0-8.31-1.08-11.83-3.22c-3.52-2.15-6.26-5.15-8.22-8.98
		c-1.96-3.85-2.94-8.15-2.94-12.92v-2.04c0-4.93,0.96-9.37,2.87-13.32s4.57-7.06,7.99-9.32c3.41-2.26,7.11-3.39,11.1-3.39
		c6.23,0,11.17,2.13,14.82,6.38c3.66,4.25,5.48,10.06,5.48,17.42v3.17h-36.61v1.09c0,5.82,1.67,10.66,5,14.54
		c3.33,3.87,7.53,5.8,12.59,5.8c3.03,0,5.72-0.55,8.04-1.66c2.33-1.1,4.44-2.88,6.33-5.31l3.56,2.71
		C1205.31,304.67,1199.25,307.68,1191.32,307.68z M1190.28,259.32c-4.27,0-7.86,1.57-10.79,4.69c-2.92,3.14-4.7,7.34-5.33,12.62
		h30.77v-0.62c-0.16-4.93-1.56-8.95-4.22-12.04C1198.05,260.88,1194.57,259.32,1190.28,259.32z"/>
</g>
<g>
	<path class="st0" d="M1255.92,255.43l0.43,5.73c3.63-4.45,8.55-6.68,14.75-6.68c6.61,0,11.14,2.61,13.61,7.82
		c3.6-5.21,8.74-7.82,15.41-7.82c5.57,0,9.7,1.62,12.42,4.86c2.72,3.24,4.08,8.11,4.08,14.63v32.76h-13.75v-32.8
		c0-2.91-0.57-5.04-1.71-6.39c-1.14-1.34-3.15-2.03-6.02-2.03c-4.11,0-6.95,1.97-8.54,5.9l0.05,35.31h-13.7v-32.74
		c0-2.98-0.59-5.14-1.75-6.47s-3.16-2-5.97-2c-3.89,0-6.7,1.62-8.44,4.85v36.36h-13.7v-51.31h12.83L1255.92,255.43L1255.92,255.43z"
		/>
	<path class="st0" d="M1357.07,306.74c-0.63-1.23-1.09-2.77-1.38-4.6c-3.32,3.71-7.63,5.55-12.95,5.55c-5.03,0-9.19-1.46-12.49-4.36
		c-3.31-2.91-4.96-6.58-4.96-11c0-5.44,2.02-9.61,6.04-12.52c4.03-2.91,9.86-4.38,17.48-4.41h6.31v-2.93c0-2.38-0.61-4.28-1.82-5.69
		c-1.22-1.43-3.14-2.14-5.76-2.14c-2.31,0-4.12,0.55-5.43,1.66c-1.31,1.11-1.97,2.63-1.97,4.55h-13.7c0-2.97,0.92-5.72,2.75-8.24
		c1.83-2.53,4.43-4.52,7.78-5.96c3.35-1.44,7.11-2.16,11.29-2.16c6.32,0,11.34,1.59,15.05,4.77c3.72,3.17,5.57,7.64,5.57,13.4v22.23
		c0.03,4.87,0.71,8.55,2.04,11.04v0.81H1357.07z M1345.74,297.2c2.02,0,3.89-0.45,5.6-1.34c1.71-0.91,2.97-2.11,3.79-3.63v-8.82
		h-5.12c-6.86,0-10.51,2.37-10.95,7.11l-0.05,0.8c0,1.71,0.6,3.12,1.8,4.22C1342.01,296.65,1343.65,297.2,1345.74,297.2z"/>
	<path class="st0" d="M1398.43,286.16l-4.93,4.93v15.65h-13.71v-72.83h13.71v40.35l2.66-3.41l13.13-15.41h16.46l-18.54,21.39
		l20.16,29.92h-15.74L1398.43,286.16z"/>
	<path class="st0" d="M1432.54,242.15c0-2.05,0.68-3.75,2.06-5.08c1.37-1.33,3.25-1.98,5.62-1.98c2.34,0,4.2,0.66,5.6,1.98
		c1.39,1.33,2.09,3.03,2.09,5.08c0,2.09-0.71,3.79-2.11,5.12c-1.41,1.33-3.27,1.99-5.57,1.99c-2.31,0-4.16-0.66-5.58-1.99
		C1433.24,245.95,1432.54,244.24,1432.54,242.15z M1447.1,306.74h-13.75v-51.31h13.75V306.74z"/>
	<path class="st0" d="M1471.39,255.43l0.42,5.92c3.67-4.58,8.59-6.87,14.75-6.87c5.43,0,9.48,1.59,12.14,4.78
		c2.66,3.2,4.01,7.97,4.08,14.33v33.14h-13.71v-32.89c0-2.91-0.63-5.03-1.9-6.35c-1.26-1.31-3.36-1.97-6.3-1.97
		c-3.86,0-6.75,1.66-8.68,4.95v36.26h-13.7v-51.31h12.9V255.43z"/>
	<path class="st0" d="M1511.56,280.7c0-7.86,1.88-14.21,5.62-19.01c3.75-4.8,8.79-7.21,15.15-7.21c5.63,0,10.01,1.93,13.14,5.79
		l0.57-4.84h12.42v49.6c0,4.49-1.02,8.4-3.06,11.71c-2.03,3.33-4.91,5.85-8.6,7.59c-3.7,1.74-8.04,2.61-12.99,2.61
		c-3.77,0-7.43-0.75-11-2.25c-3.58-1.5-6.28-3.44-8.11-5.81l6.07-8.35c3.41,3.83,7.56,5.74,12.42,5.74c3.64,0,6.47-0.97,8.49-2.92
		c2.02-1.94,3.03-4.7,3.03-8.27v-2.76c-3.16,3.58-7.32,5.36-12.48,5.36c-6.16,0-11.15-2.41-14.96-7.23
		c-3.81-4.82-5.72-11.22-5.72-19.18L1511.56,280.7L1511.56,280.7z M1525.27,281.68c0,4.66,0.93,8.33,2.79,10.98
		c1.87,2.66,4.43,3.97,7.68,3.97c4.17,0,7.16-1.57,8.97-4.71v-21.68c-1.84-3.14-4.79-4.72-8.87-4.72c-3.28,0-5.87,1.35-7.75,4.05
		C1526.21,272.28,1525.27,276.31,1525.27,281.68z"/>
</g>
<g>
	<path class="st0" d="M1592.04,280.32c0-4.93,0.96-9.37,2.87-13.32s4.61-7.03,8.1-9.23s7.45-3.29,11.88-3.29
		c6.83,0,12.35,2.4,16.6,7.18c4.23,4.79,6.35,11.14,6.35,19.04v1.19c0,4.97-0.96,9.43-2.87,13.4s-4.6,7.03-8.09,9.17
		c-3.47,2.15-7.44,3.22-11.9,3.22c-6.8,0-12.32-2.4-16.57-7.18c-4.26-4.79-6.38-11.14-6.38-19.04v-1.14H1592.04z M1597.73,281.89
		c0,6.13,1.59,11.16,4.77,15.1c3.17,3.93,7.34,5.9,12.49,5.9c5.12,0,9.27-1.97,12.45-5.9c3.17-3.94,4.76-9.13,4.76-15.58v-1.09
		c0-3.91-0.72-7.5-2.18-10.76c-1.45-3.26-3.49-5.78-6.11-7.56c-2.63-1.78-5.63-2.68-9.01-2.68c-5.06,0-9.18,1.98-12.38,5.95
		c-3.19,3.97-4.78,9.16-4.78,15.58L1597.73,281.89L1597.73,281.89z"/>
	<path class="st0" d="M1651.79,306.74v-46.66h-8.48v-4.65h8.48v-6.22c0-5.24,1.34-9.28,4.01-12.09s6.4-4.22,11.16-4.22
		c2.16,0,4.16,0.27,6.03,0.8l-0.43,4.7c-1.58-0.38-3.3-0.57-5.16-0.57c-3.13,0-5.57,0.98-7.3,2.93c-1.74,1.95-2.61,4.72-2.61,8.29
		v6.37h12.23v4.65h-12.23v46.66h-5.7V306.74z"/>
</g>
<g>
	<path class="st0" d="M1091.96,405.47c-0.57-1.62-0.93-4-1.09-7.16c-1.99,2.59-4.53,4.59-7.61,5.98c-3.08,1.41-6.35,2.12-9.79,2.12
		c-4.93,0-8.92-1.38-11.97-4.12c-3.05-2.76-4.58-6.24-4.58-10.43c0-5,2.08-8.95,6.23-11.86c4.16-2.91,9.95-4.36,17.38-4.36h10.29
		v-5.83c0-3.67-1.13-6.55-3.39-8.66c-2.26-2.1-5.55-3.16-9.88-3.16c-3.95,0-7.22,1.02-9.82,3.03c-2.59,2.02-3.89,4.47-3.89,7.31
		l-5.69-0.05c0-4.09,1.9-7.62,5.69-10.6s8.46-4.48,13.99-4.48c5.72,0,10.23,1.43,13.54,4.29c3.3,2.86,5,6.86,5.1,11.98v24.28
		c0,4.95,0.52,8.67,1.56,11.14v0.57L1091.96,405.47L1091.96,405.47z M1074.14,401.39c3.79,0,7.19-0.91,10.17-2.74
		c2.99-1.84,5.16-4.29,6.52-7.35v-11.29h-10.15c-5.66,0.07-10.08,1.1-13.28,3.1c-3.19,2.02-4.79,4.78-4.79,8.28
		c0,2.88,1.07,5.26,3.2,7.16C1067.95,400.44,1070.72,401.39,1074.14,401.39z"/>
	<path class="st0" d="M1165.94,392.44c0-2.83-1.13-5.09-3.39-6.79c-2.26-1.71-5.67-3.03-10.22-4c-4.55-0.97-8.08-2.07-10.6-3.33
		c-2.51-1.24-4.38-2.76-5.6-4.57c-1.22-1.79-1.82-3.98-1.82-6.54c0-4.05,1.69-7.4,5.07-10.04s7.71-3.97,12.99-3.97
		c5.72,0,10.31,1.41,13.78,4.24c3.46,2.83,5.19,6.54,5.19,11.09h-5.69c0-3.02-1.26-5.5-3.77-7.5c-2.52-1.98-5.69-2.98-9.51-2.98
		c-3.73,0-6.72,0.83-8.98,2.48c-2.26,1.66-3.39,3.83-3.39,6.48c0,2.55,0.94,4.53,2.82,5.95c1.88,1.4,5.31,2.69,10.29,3.86
		s8.71,2.41,11.19,3.74s4.32,2.93,5.53,4.79c1.2,1.86,1.8,4.12,1.8,6.78c0,4.33-1.75,7.79-5.24,10.38c-3.49,2.6-8.05,3.9-13.68,3.9
		c-5.97,0-10.82-1.45-14.53-4.35c-3.72-2.9-5.57-6.55-5.57-10.97h5.69c0.22,3.31,1.62,5.9,4.19,7.74c2.58,1.85,5.98,2.78,10.22,2.78
		c3.95,0,7.14-0.86,9.58-2.6C1164.72,397.28,1165.94,395.09,1165.94,392.44z"/>
	<path class="st0" d="M1189.36,354.16l0.19,8.35c1.9-3.09,4.27-5.41,7.11-6.97c2.85-1.55,6-2.33,9.48-2.33
		c8.09,0,13.23,3.33,15.41,9.97c1.83-3.19,4.28-5.66,7.35-7.38s6.45-2.59,10.15-2.59c11,0,16.61,6.02,16.83,18.02v34.24h-5.69
		v-33.81c-0.03-4.59-1.02-7.98-2.97-10.19c-1.94-2.22-5.11-3.33-9.51-3.33c-4.08,0.07-7.52,1.38-10.34,3.97
		c-2.81,2.57-4.38,5.71-4.69,9.41v33.95h-5.69v-34.24c-0.03-4.4-1.07-7.67-3.1-9.83c-2.04-2.17-5.18-3.26-9.41-3.26
		c-3.57,0-6.64,1.02-9.2,3.07c-2.56,2.03-4.46,5.05-5.69,9.07v35.19h-5.69v-51.32L1189.36,354.16L1189.36,354.16L1189.36,354.16z"/>
	<path class="st0" d="M1302.35,405.47c-0.57-1.62-0.93-4-1.09-7.16c-1.99,2.59-4.53,4.59-7.61,5.98c-3.08,1.41-6.35,2.12-9.79,2.12
		c-4.93,0-8.92-1.38-11.97-4.12c-3.05-2.76-4.58-6.24-4.58-10.43c0-5,2.08-8.95,6.23-11.86c4.16-2.91,9.95-4.36,17.38-4.36h10.29
		v-5.83c0-3.67-1.13-6.55-3.39-8.66c-2.26-2.1-5.55-3.16-9.88-3.16c-3.95,0-7.22,1.02-9.82,3.03c-2.59,2.02-3.89,4.47-3.89,7.31
		l-5.69-0.05c0-4.09,1.9-7.62,5.69-10.6s8.46-4.48,13.99-4.48c5.72,0,10.23,1.43,13.54,4.29c3.3,2.86,5,6.86,5.1,11.98v24.28
		c0,4.95,0.52,8.67,1.56,11.14v0.57L1302.35,405.47L1302.35,405.47z M1284.52,401.39c3.79,0,7.19-0.91,10.17-2.74
		c2.99-1.84,5.16-4.29,6.52-7.35v-11.29h-10.15c-5.66,0.07-10.08,1.1-13.28,3.1c-3.19,2.02-4.79,4.78-4.79,8.28
		c0,2.88,1.07,5.26,3.2,7.16C1278.33,400.44,1281.1,401.39,1284.52,401.39z"/>
	<path class="st0" d="M1345.2,359c-1.2-0.22-2.48-0.33-3.84-0.33c-3.54,0-6.54,0.98-8.99,2.95c-2.45,1.98-4.19,4.85-5.24,8.62v35.23
		h-5.64v-51.32h5.55l0.09,8.16c3-6.07,7.82-9.1,14.46-9.1c1.58,0,2.83,0.21,3.75,0.62L1345.2,359z"/>
	<path class="st0" d="M1366.29,341.04v13.12h10.62v4.66h-10.62v34.23c0,2.85,0.51,4.97,1.54,6.36c1.03,1.38,2.74,2.09,5.14,2.09
		c0.95,0,2.48-0.16,4.6-0.48l0.23,4.6c-1.48,0.53-3.51,0.81-6.07,0.81c-3.89,0-6.72-1.14-8.49-3.4s-2.66-5.59-2.66-9.98v-34.23
		h-9.44v-4.66h9.44v-13.12L1366.29,341.04L1366.29,341.04z"/>
	<path class="st0" d="M1406.01,406.42c-4.36,0-8.3-1.09-11.83-3.22c-3.53-2.16-6.27-5.16-8.22-8.98c-1.97-3.85-2.94-8.16-2.94-12.93
		v-2.03c0-4.93,0.96-9.38,2.87-13.33s4.57-7.05,7.98-9.31s7.11-3.4,11.1-3.4c6.23,0,11.17,2.14,14.82,6.38
		c3.66,4.26,5.47,10.07,5.47,17.43v3.17h-36.61v1.09c0,5.83,1.67,10.67,5.01,14.54c3.33,3.88,7.53,5.81,12.59,5.81
		c3.03,0,5.72-0.55,8.04-1.66c2.33-1.1,4.43-2.88,6.33-5.31l3.56,2.71C1420,403.4,1413.95,406.42,1406.01,406.42z M1404.96,358.05
		c-4.27,0-7.86,1.57-10.79,4.69c-2.92,3.14-4.7,7.33-5.34,12.62h30.78v-0.62c-0.16-4.93-1.57-8.95-4.22-12.05
		C1412.74,359.61,1409.27,358.05,1404.96,358.05z"/>
	<path class="st0" d="M1460.12,359c-1.21-0.22-2.48-0.33-3.85-0.33c-3.53,0-6.54,0.98-8.98,2.95c-2.45,1.98-4.2,4.85-5.24,8.62
		v35.23h-5.64v-51.32h5.54l0.09,8.16c3.01-6.07,7.83-9.1,14.47-9.1c1.58,0,2.83,0.21,3.74,0.62L1460.12,359z"/>
	<path class="st0" d="M1511.65,401.63c3.96,0,7.27-1.12,9.93-3.35c2.67-2.22,4.12-5.1,4.35-8.66h5.45
		c-0.16,3.14-1.14,5.98-2.94,8.57c-1.8,2.57-4.2,4.59-7.18,6.04c-2.99,1.47-6.19,2.19-9.6,2.19c-6.73,0-12.07-2.35-16-7.02
		c-3.94-4.69-5.91-10.97-5.91-18.88v-1.71c0-5.05,0.89-9.52,2.66-13.42c1.78-3.88,4.31-6.9,7.61-9c3.3-2.12,7.16-3.19,11.6-3.19
		c5.62,0,10.26,1.67,13.92,5.03c3.65,3.35,5.6,7.76,5.85,13.23h-5.45c-0.26-4.02-1.7-7.26-4.35-9.73c-2.64-2.47-5.97-3.69-9.97-3.69
		c-5.12,0-9.1,1.84-11.93,5.55c-2.83,3.69-4.24,8.88-4.24,15.55v1.66c0,6.54,1.41,11.64,4.24,15.31
		C1502.52,399.8,1506.51,401.63,1511.65,401.63z"/>
	<path class="st0" d="M1541.99,339.35c0-1.07,0.35-1.97,1.04-2.71c0.7-0.74,1.65-1.1,2.85-1.1c1.21,0,2.16,0.36,2.87,1.1
		c0.72,0.74,1.07,1.64,1.07,2.71c0,1.07-0.35,1.97-1.07,2.69c-0.71,0.72-1.66,1.09-2.87,1.09c-1.2,0-2.15-0.36-2.85-1.09
		C1542.35,341.31,1541.99,340.42,1541.99,339.35z M1548.68,405.47h-5.69v-51.32h5.69V405.47z"/>
	<path class="st0" d="M1573.01,341.04v13.12h10.62v4.66h-10.62v34.23c0,2.85,0.51,4.97,1.54,6.36c1.03,1.38,2.74,2.09,5.14,2.09
		c0.95,0,2.48-0.16,4.6-0.48l0.23,4.6c-1.48,0.53-3.51,0.81-6.07,0.81c-3.89,0-6.72-1.14-8.48-3.4c-1.78-2.26-2.66-5.59-2.66-9.98
		v-34.23h-9.44v-4.66h9.44v-13.12L1573.01,341.04L1573.01,341.04z"/>
	<path class="st0" d="M1613.41,397.32l14.98-43.16h6.11l-21.91,60.04l-1.14,2.66c-2.81,6.22-7.16,9.35-13.04,9.35
		c-1.36,0-2.82-0.22-4.36-0.67l-0.05-4.69l2.94,0.28c2.78,0,5.04-0.69,6.76-2.05c1.72-1.38,3.18-3.74,4.39-7.09l2.51-6.93
		l-19.35-50.88h6.22L1613.41,397.32z"/>
</g>
<g>
	<rect x="938.53" y="211.16" class="st0" width="2.97" height="221.38"/>
</g>
</svg>
